<svg width="241" height="241" viewBox="0 0 241 241" fill="none" xmlns="http://www.w3.org/2000/svg">
<circle cx="120.5" cy="120.5" r="120.5" fill="#E5FCDC"/>
<path d="M162.434 118.693L150.277 106.536C150.652 104.286 151.241 102.198 151.991 100.377C152.505 99.1574 152.709 97.8296 152.586 96.5119C152.462 95.1942 152.015 93.9274 151.283 92.8246C150.552 91.7218 149.558 90.8171 148.392 90.1912C147.226 89.5653 145.923 89.2376 144.6 89.2373C135.817 89.2373 128.051 93.4682 123.178 99.9484H96.3999C80.119 99.9484 66.9443 113.123 66.9443 129.404C66.9443 145.685 80.3332 190.993 80.3332 190.993H109.789V180.282H120.5V190.993H149.955L158.953 161.055L174.055 156.021V118.693H162.434ZM125.855 126.726H99.0777V116.015H125.855V126.726ZM141.922 137.437C138.977 137.437 136.567 135.027 136.567 132.082C136.567 129.136 138.977 126.726 141.922 126.726C144.868 126.726 147.278 129.136 147.278 132.082C147.278 135.027 144.868 137.437 141.922 137.437Z" fill="#76DB75"/>
<path d="M91.7182 78.5581L98.6367 77.2334L99.9613 84.1519L93.0429 85.4765L91.7182 78.5581ZM88.8242 38.4703C101.259 36.6154 109.017 48.0399 103.472 58.7839C101.999 61.4565 99.2003 63.5703 98.0491 65.7989C96.8705 68.0088 97.3121 70.315 97.7536 72.6211L90.8351 73.9458C90.0977 70.0945 89.4752 66.8428 90.5787 64.2408C91.6593 61.6432 94.489 59.6909 96.1117 57.8024C100.704 51.5681 97.9201 44.5225 90.1489 45.3888C88.314 45.7401 86.6938 46.806 85.6448 48.3518C84.5957 49.8977 84.2037 51.797 84.5551 53.6319L77.6366 54.9566C76.934 51.2868 77.7179 47.4882 79.816 44.3964C81.9141 41.3047 85.1545 39.173 88.8242 38.4703Z" fill="#76DB75"/>
<path d="M134.563 76.2395L140.227 76.9511L139.515 82.6144L133.852 81.9029L134.563 76.2395ZM142.371 44.6218C152.418 46.306 155.536 57.0526 148.573 63.9438C146.768 65.6348 144.082 66.5629 142.637 67.9921C141.176 69.4 140.938 71.2878 140.701 73.1755L135.038 72.464C135.434 69.3114 135.768 66.6497 137.27 64.9208C138.753 63.1896 141.423 62.3936 143.146 61.3445C148.246 57.6899 147.865 51.5634 141.66 50.2851C140.158 50.0964 138.642 50.5121 137.447 51.4407C136.251 52.3694 135.473 53.7349 135.285 55.2369L129.621 54.5254C129.999 51.5213 131.554 48.7903 133.945 46.933C136.336 45.0758 139.367 44.2444 142.371 44.6218Z" fill="#76DB75"/>
</svg>
